<svg xmlns="http://www.w3.org/2000/svg" version="1.1" xmlns:xlink="http://www.w3.org/1999/xlink" xmlns:svgjs="http://svgjs.dev/svgjs" width="1000" height="1000" viewBox="0 0 1000 1000"><rect width="1000" height="1000" fill="#1b4571"></rect><g transform="matrix(0.7,0,0,0.7,149.57575757575756,282.1265587044535)"><svg viewBox="0 0 396 247" data-background-color="#1b4571" preserveAspectRatio="xMidYMid meet" height="623" width="1000" xmlns="http://www.w3.org/2000/svg" xmlns:xlink="http://www.w3.org/1999/xlink"><g id="tight-bounds" transform="matrix(1,0,0,1,0.2400000000000091,-0.09999999999999432)"><svg viewBox="0 0 395.52 247.2" height="247.2" width="395.52"><g><svg></svg></g><g><svg viewBox="0 0 395.52 247.2" height="247.2" width="395.52"><g transform="matrix(1,0,0,1,75.54432,53.79405271636675)"><svg viewBox="0 0 244.43135999999998 139.6118945672665" height="139.6118945672665" width="244.43135999999998"><g><svg viewBox="0 0 244.43135999999998 139.6118945672665" height="139.6118945672665" width="244.43135999999998"><g><svg viewBox="0 0 244.43135999999998 139.6118945672665" height="139.6118945672665" width="244.43135999999998"><g><svg viewBox="0 0 244.43135999999998 139.6118945672665" height="139.6118945672665" width="244.43135999999998"><g id="textblocktransform"><svg viewBox="0 0 244.43135999999998 139.6118945672665" height="139.6118945672665" width="244.43135999999998" id="textblock"><g><svg viewBox="0 0 244.43135999999998 139.6118945672665" height="139.6118945672665" width="244.43135999999998"><g transform="matrix(1,0,0,1,0,0)"><svg width="244.43135999999998" viewBox="2.390000104904175 -37.380001068115234 66.4800033569336 37.9697151184082" height="139.6118945672665" data-palette-color="#ffffff"><path d="M2.39-34.74L2.39-36.82 14.36-36.82 14.36-34.74 10.62-34.18 10.62-20.24 31.01-20.24 31.01-34.18 27.29-34.74 27.29-36.82 39.26-36.82 39.26-34.74 35.57-34.18 35.57-2.64 39.26-2.08 39.26 0 27.29 0 27.29-2.08 31.01-2.64 31.01-17.31 10.62-17.31 10.62-2.64 14.36-2.08 14.36 0 2.39 0 2.39-2.08 6.1-2.64 6.1-34.18 2.39-34.74ZM56.08-2.34L56.08-2.34Q57.88-2.34 59.36-2.7 60.84-3.05 61.91-3.81L61.91-3.81Q64.21-5.4 64.21-8.45L64.21-8.45Q64.21-11.04 62.52-12.7L62.52-12.7Q60.74-14.4 56.75-16.15 52.76-17.9 50.67-19.27 48.58-20.65 47.39-22.07L47.39-22.07Q45.21-24.56 45.21-28.1L45.21-28.1Q45.21-32.2 48.75-34.86L48.75-34.86Q52.05-37.38 56.74-37.38L56.74-37.38Q60.42-37.38 64.11-36.04L64.11-36.04Q65.65-35.42 66.89-34.69L66.89-34.69 66.04-28.17 63.99-28.17Q63.99-31.54 62.16-33.07 60.32-34.59 56.86-34.59L56.86-34.59Q52.07-34.59 50.31-31.47L50.31-31.47Q49.75-30.44 49.75-29.17 49.75-27.91 50.12-26.89 50.49-25.88 51.54-24.9L51.54-24.9Q53.59-22.92 59.25-20.56L59.25-20.56Q67.16-17.19 68.48-12.6L68.48-12.6Q68.87-11.16 68.87-9.53 68.87-7.91 68.32-6.46 67.77-5 66.82-3.87 65.87-2.73 64.61-1.9 63.35-1.07 61.94-0.54L61.94-0.54Q55.66 1.9 48.75-0.93L48.75-0.93Q46.24-1.98 44.31-3.49L44.31-3.49 45.33-10.5 47.41-10.5Q47.41-5.59 50.51-3.66L50.51-3.66Q52.63-2.34 56.08-2.34Z" opacity="1" transform="matrix(1,0,0,1,0,0)" fill="#ffffff" class="wordmark-text-0" data-fill-palette-color="primary" id="text-0"></path></svg></g></svg></g></svg></g></svg></g></svg></g></svg></g></svg></g><path d="M251.183 47.794L251.183 3.43 10.844 3.43 10.844 243.77 251.183 243.77 251.183 199.406 238.593 199.406 238.593 231.179 23.434 231.179 23.434 16.021 238.593 16.021 238.593 47.794Z" fill="#ffffff" stroke="transparent" data-fill-palette-color="primary"></path></svg></g><defs></defs></svg><rect width="395.52" height="247.2" fill="none" stroke="none" visibility="hidden"></rect></g></svg></g></svg>